<svg xmlns="http://www.w3.org/2000/svg" viewBox="0 0 398.901 276.923">
	 <title>hamburger</title>
<g class="patty_1_">
	<path class="patty__burger" style="fill:#2D0900;" d="M371.97,184.033c0,8.611-5.373,15.119-12,15.119h-318
		c-6.627,0-12-6.508-12-15.119V150.25c0-8.611,5.373-15.098,12-15.098h318c6.627,0,12,6.487,12,15.098V184.033z"/>
</g>
<g class="cheese">
	<path class="cheese__slice" style="fill:#F2CF20;" d="M372.567,185.959c2.212-12.316,8.285-57.68-22.809-55.146
		c-29.227,2.382-303.297,0-303.297,0s-30.026,3.676-20.042,42.336c-2.664,6.044-5.946,16.214,0.597,18.932
		c7.727,3.21,13.033-4.511,7.344-15.569c35.004-22.694,252.358-48.461,318.813-10.176c-2.25,5.649-4.197,13.563,1.287,15.841
		c5.63,2.339,9.869-1.573,8.891-8.322c3.238,3.155,5.678,6.629,7.212,10.443c-1.734,3.176-13.306,25.286-1.94,30.006
		C380.438,219.211,387.867,204.347,372.567,185.959z"/>
</g>
<g class="ketchup">
	<path class="ketchup__drip" style="fill:#C1272D;" d="M375.056,130.711c-9.228-7.702-13.679-4.467-15.691-1.143
		c-7.732-3.091-20.204-4.462-34.716-4.111c-29.687,0.719-251.273-5.446-251.273-5.446s-32.123,6.231-34.463,11.533
		c-2.078,0.209-4.736,1.382-8.143,4.138c-13.807,11.174-4.929,27.936,5.517,19.931c6.375-4.885,31.2-10.469,31.2-10.469
		l-2.017-0.553c0.84,0.118,1.704,0.232,2.604,0.341c26.2,3.17,97.541-8.864,97.541-8.864s21.204,7.843,28.626,9.396
		c2.42,0.506,13.523,0.362,27.533-0.146l-8.017,29.271c0,0-0.588,19.862,14.068,13.612c6.526-2.783,6.446-13.077,4.351-23.642
		c1.158,0.124,2.558-0.048,4.263-0.658c5.89-2.106,3.962-11.667,1.338-19.26c26.205-1.249,54.825-3.251,57.185-4.58
		c3.876-2.183,50.263,15.154,66.307,7.671c2.615,0.998,4.845,1.878,6.316,2.517C381.191,156.152,389.469,142.741,375.056,130.711z
		 M46.153,139.289c0,0-0.003-0.029-0.009-0.071c0.077,0.044,0.153,0.088,0.233,0.132L46.153,139.289z M228.506,150.685
		c-0.645-2.017-1.287-3.891-1.879-5.552c1.233-0.049,2.48-0.101,3.742-0.155L228.506,150.685z"/>
</g>
<g class="lettace">
	<path class="lettace__slice" style="fill:#006837;" d="M9.89,167.152c0,0,42.857-33.087,75.824-16.603s81.319,9.008,87.912,5.603
		s37.363-23.552,59.341-12.929s56.043,25.125,68.131,12.929s65.935-18.903,81.319-5.66s4.396-35.095-19.78-25.218
		s-74.727,4.508-79.121-2.719s-77.144-5.03-101.099,1.377c-29.67,7.935-73.626,12.964-82.418,5.737S1.099,118.045,9.89,167.152z"/>
</g>
<g class="bun">
	<path class="bun-top" style="fill:#E2BF93;" d="M357.202,135.152c-0.157-52-70.202-93.351-156.589-93.351
		c-86.387,0-156.433,41.351-156.589,93.351H357.202z"/>
	<path class="bun-btm" style="fill:#E2BF93;" d="M356.97,199.152v44.651c0,8.611-5.23,15.349-11.857,15.349h-289
		c-6.627,0-12.143-6.737-12.143-15.349v-44.651H356.97z"/>
</g>
<g class="seeds">
	
		<ellipse class="seed" transform="matrix(0.9241 -0.3821 0.3821 0.9241 -18.033 51.1028)" style="fill:#FFEED0;" cx="119.655" cy="70.957" rx="12.136" ry="5.56"/>
	
		<ellipse class="seed" transform="matrix(0.0517 -0.9987 0.9987 0.0517 113.4824 271.4202)" style="fill:#FFEED0;" cx="199.656" cy="75.957" rx="12.137" ry="5.56"/>
	
		<ellipse class="seed" transform="matrix(-0.6009 -0.7993 0.7993 -0.6009 335.7622 327.5591)" style="fill:#FFEED0;" cx="249.656" cy="79.957" rx="12.136" ry="5.56"/>
	
		<ellipse class="seed" transform="matrix(0.5935 -0.8049 0.8049 0.5935 0.5511 161.0052)" style="fill:#FFEED0;" cx="159.657" cy="79.957" rx="12.136" ry="5.56"/>
	
		<ellipse class="seed" transform="matrix(-0.7454 -0.6666 0.6666 -0.7454 442.9668 315.0957)" style="fill:#FFEED0;" cx="281.656" cy="72.957" rx="12.136" ry="5.56"/>
</g>
</svg>
